{"title":"Tekken.2010.DVDRip.XviD.AC3-ViSiON-[tracker.BTARENA.org].avi","uid":5739948,"size":1574829082,"categoryP":"video","categoryS":"movies","magnet":"?xt=urn:btih:e8fd5f9a1d1a23d8593d0a03553be49f17e6e128&amp;dn=Tekken.2010.DVDRip.XviD.AC3-ViSiON-%5Btracker.BTARENA.org%5D.avi&amp;tr=udp%3A%2F%2Ftracker.openbittorrent.com%3A80&amp;tr=udp%3A%2F%2Fopen.demonii.com%3A1337&amp;tr=udp%3A%2F%2Ftracker.coppersurfer.tk%3A6969&amp;tr=udp%3A%2F%2Fexodus.desync.com%3A6969","seeders":5,"leechers":0,"uploader":"AiTB","files":4,"time":1280966561,"description":"\n\ninfo, sample..\n &lt;a href=&quot;\nhttp://www.btarena.org/movies/dvdrip/tekken-2010-dvdrip-xvid-ac3-vision&quot; rel=&quot;nofollow&quot; target=&quot;_NEW&quot;&gt;\nhttp://www.btarena.org/movies/dvdrip/tekken-2010-dvdrip-xvid-ac3-vision&lt;/a&gt;\n\n\n\n\nSAMPLE-Tekken.2010.DVDRip.XviD.AC3-ViSiON.avi\nFormat                           : AVI\nFormat/Info                      : Audio Video Interleave\nFile size                        : 15.3 MiB\nDuration                         : 1mn 7s\nOverall bit rate                 : 1 918 Kbps\nWriting application              : VirtualDubMod 1.5.10.2 (build 2542/release)\nWriting library                  : VirtualDubMod build 2542/release\n\nVideo\nID                               : 0\nFormat                           : MPEG-4 Visual\nFormat profile                   : Advanced Simple@L5\nFormat settings, BVOP            : Yes\nFormat settings, QPel            : No\nFormat settings, GMC             : No warppoints\nFormat settings, Matrix          : Custom\nMuxing mode                      : Packed bitstream\nCodec ID                         : XVID\nCodec ID/Hint                    : XviD\nDuration                         : 1mn 7s\nBit rate                         : 1 459 Kbps\nWidth                            : 720 pixels\nHeight                           : 400 pixels\nDisplay aspect ratio             : 16:9\nFrame rate                       : 25.000 fps\nResolution                       : 8 bits\nColorimetry                      : 4:2:0\nScan type                        : Progressive\nBits/(Pixel*Frame)               : 0.203\nStream size                      : 11.7 MiB (76%)\nWriting library                  : XviD 1.2.1 (UTC 2008-12-04)\n\nAudio\nID                               : 1\nFormat                           : AC-3\nFormat/Info                      : Audio Coding 3\nCodec ID                         : 2000\nDuration                         : 1mn 7s\nBit rate mode                    : Constant\nBit rate                         : 448 Kbps\nChannel(s)                       : 6 channels\nChannel positions                : Front: L C R, Surround: L R, LFE\nSampling rate                    : 48.0 KHz\nVideo delay                      : 8ms\nStream size                      : 3.58 MiB (23%)\nAlignment                        : Split accross interleaves\nInterleave, duration             : 40 ms (1.01 video frame)\nInterleave, preload duration     : 500 ms\n\n\n\nA high-octane action movie about a young man who discovers he holds a great power and must battle a team of elite fighters who will stop at nothing in order to get it from him.\n\n","torrent":{"xt":"urn:btih:e8fd5f9a1d1a23d8593d0a03553be49f17e6e128","amp;dn":"Tekken.2010.DVDRip.XviD.AC3-ViSiON-%5Btracker.BTARENA.org%5D.avi","amp;tr":["udp%3A%2F%2Ftracker.openbittorrent.com%3A80","udp%3A%2F%2Fopen.demonii.com%3A1337","udp%3A%2F%2Ftracker.coppersurfer.tk%3A6969","udp%3A%2F%2Fexodus.desync.com%3A6969"],"infoHash":"e8fd5f9a1d1a23d8593d0a03553be49f17e6e128","infoHashBuffer":{"type":"Buffer","data":[232,253,95,154,29,26,35,216,89,61,10,3,85,59,228,159,23,230,225,40]},"announce":[],"urlList":[]}}